<svg xmlns="http://www.w3.org/2000/svg" xmlns:xlink="http://www.w3.org/1999/xlink" width="500" zoomAndPan="magnify" viewBox="0 0 375 374.999991" height="500" preserveAspectRatio="xMidYMid meet" version="1.0"><defs><g/><clipPath id="7d0facfe01"><path d="M 63.949219 50.042969 L 311.050781 50.042969 L 311.050781 297.144531 L 63.949219 297.144531 Z M 63.949219 50.042969 " clip-rule="nonzero"/></clipPath><clipPath id="cfdc5f7c04"><path d="M 187.5 50.042969 C 119.265625 50.042969 63.949219 105.359375 63.949219 173.59375 C 63.949219 241.828125 119.265625 297.144531 187.5 297.144531 C 255.734375 297.144531 311.050781 241.828125 311.050781 173.59375 C 311.050781 105.359375 255.734375 50.042969 187.5 50.042969 " clip-rule="nonzero"/></clipPath><clipPath id="8e4c54cd40"><path d="M 114.113281 96.542969 L 263 96.542969 L 263 207.542969 L 114.113281 207.542969 Z M 114.113281 96.542969 " clip-rule="nonzero"/></clipPath></defs><g clip-path="url(#7d0facfe01)"><g clip-path="url(#cfdc5f7c04)"><path fill="#ffb6f1" d="M 63.949219 50.042969 L 311.050781 50.042969 L 311.050781 297.144531 L 63.949219 297.144531 Z M 63.949219 50.042969 " fill-opacity="1" fill-rule="nonzero"/></g></g><g clip-path="url(#8e4c54cd40)"><path fill="#000000" d="M 193.195312 97.339844 C 186.136719 98.746094 183.742188 100.214844 176.011719 108.175781 C 167.664062 116.746094 164.964844 118.277344 156.617188 119.257812 C 150.847656 119.867188 148.515625 119.257812 152.257812 118.03125 C 154.835938 117.175781 156.554688 115.398438 156.25 113.929688 C 156.125 113.316406 155.082031 112.277344 153.917969 111.605469 C 152.015625 110.441406 150.785156 110.316406 142.5625 110.316406 C 133.96875 110.378906 133.171875 110.441406 130.71875 111.847656 C 127.035156 113.929688 127.28125 115.828125 131.515625 118.09375 L 134.582031 119.808594 L 131.332031 119.808594 C 124.335938 119.808594 120.714844 123.175781 117.765625 132.175781 C 115.679688 138.605469 115.191406 143.683594 114.882812 163.582031 C 114.332031 196.09375 115.191406 201.050781 122.1875 204.542969 L 125.683594 206.316406 L 149.007812 206.625 C 165.269531 206.808594 172.328125 206.746094 172.328125 206.257812 C 172.328125 205.828125 165.023438 205.523438 149.496094 205.339844 C 125.007812 205.09375 123.292969 204.910156 120.222656 201.972656 C 116.539062 198.542969 116.292969 196.828125 115.988281 174.480469 C 115.621094 144.296875 117.09375 132.296875 122.246094 125.257812 C 125.132812 121.339844 126.789062 120.972656 143.726562 120.726562 C 165.453125 120.359375 166.683594 119.867188 179.078125 106.582031 C 185.585938 99.605469 191.96875 97.339844 203.628906 98.011719 C 214.308594 98.5625 219.523438 100.339844 222.714844 104.625 C 227.871094 111.417969 228.730469 112.214844 232.65625 114.175781 C 234.929688 115.214844 237.078125 116.132812 237.507812 116.132812 C 237.9375 116.195312 238.980469 116.5625 239.777344 116.992188 L 241.3125 117.847656 L 239.285156 118.828125 C 238.121094 119.441406 236.894531 120.789062 236.402344 122.011719 C 233.085938 129.972656 243.949219 135.480469 249.042969 128.441406 C 250.640625 126.113281 250.394531 123.359375 248.308594 120.664062 L 246.957031 119.011719 L 249.230469 119.378906 C 257.453125 120.664062 260.460938 128.625 261.625 151.949219 C 261.996094 159.113281 261.011719 195.910156 260.335938 199.890625 C 260.09375 201.417969 259.539062 202.09375 257.757812 203.011719 C 252.851562 205.460938 249.472656 205.828125 231.554688 205.828125 C 202.277344 205.828125 190.496094 203.316406 178.894531 194.5 C 171.777344 189.113281 166.925781 181.765625 164.65625 173.074219 C 162.691406 165.605469 163.980469 154.460938 167.542969 146.746094 C 169.074219 143.5 173.617188 137.625 176.992188 134.5625 C 183.191406 128.867188 190.1875 126.050781 199.027344 125.5 C 205.410156 125.132812 210.257812 125.929688 215.597656 128.195312 C 224.925781 132.175781 233.578125 141.789062 237.507812 152.5625 C 239.039062 156.726562 239.285156 158.441406 239.347656 163.582031 C 239.410156 170.992188 237.753906 176.316406 233.457031 182.746094 C 230.878906 186.664062 224.128906 193.644531 219.585938 197.074219 C 218.417969 197.992188 217.683594 198.910156 217.867188 199.15625 C 218.847656 200.132812 228.851562 191.011719 233.394531 185.074219 C 239.714844 176.683594 242.171875 164.257812 239.46875 154.828125 C 237.199219 146.992188 231.738281 138.359375 225.90625 133.339844 C 222.039062 130.03125 214.738281 126.296875 209.703125 125.074219 C 188.898438 119.992188 167.296875 134.746094 163.0625 157.03125 C 162.632812 159.234375 162.445312 163.277344 162.632812 166.523438 C 163.492188 181.460938 171.835938 193.277344 186.996094 200.808594 C 193.011719 203.867188 201.480469 205.644531 214.984375 206.746094 C 224.742188 207.542969 242.847656 207.542969 248.859375 206.683594 C 254.445312 205.949219 259.664062 203.808594 260.707031 201.789062 C 261.195312 200.867188 261.808594 193.339844 262.363281 180.480469 C 263.898438 146.316406 261.6875 126.664062 255.734375 121.214844 C 253.894531 119.5625 251.746094 118.707031 246.589844 117.664062 C 242.046875 116.746094 235.359375 114.359375 231.675781 112.339844 C 230.265625 111.542969 227.933594 109.398438 226.460938 107.5625 C 220.75 100.460938 219.035156 99.175781 213.140625 97.890625 C 208.171875 96.789062 197.613281 96.542969 193.195312 97.339844 Z M 152.871094 112.644531 C 154.222656 113.257812 155.144531 113.992188 155.019531 114.417969 C 154.53125 115.828125 150.050781 117.910156 145.816406 118.644531 C 140.90625 119.5 134.523438 118.644531 131.332031 116.746094 C 127.957031 114.664062 129.058594 113.132812 134.890625 111.789062 C 138.511719 110.992188 150.234375 111.542969 152.871094 112.644531 Z M 246.652344 120.972656 C 249.964844 124.214844 249.660156 127.644531 245.976562 129.789062 C 243.828125 131.074219 242.722656 131.074219 240.144531 129.910156 C 235.480469 127.644531 235.789062 121.582031 240.699219 119.441406 C 243.519531 118.214844 244.074219 118.339844 246.652344 120.972656 Z M 246.652344 120.972656 " fill-opacity="1" fill-rule="nonzero"/></g><g fill="#000000" fill-opacity="1"><g transform="translate(114.1138, 140.543091)"><g><path d="M 75.703125 0 L 4.9375 0 L 4.9375 -4.15625 C 7.488281 -4.226562 9.546875 -4.445312 11.109375 -4.8125 C 12.679688 -5.1875 13.90625 -5.8125 14.78125 -6.6875 C 15.664062 -7.5625 16.253906 -8.800781 16.546875 -10.40625 C 16.835938 -12.007812 16.984375 -14.09375 16.984375 -16.65625 L 16.984375 -67.703125 C 16.984375 -70.265625 16.851562 -72.328125 16.59375 -73.890625 C 16.34375 -75.460938 15.832031 -76.707031 15.0625 -77.625 C 14.300781 -78.539062 13.1875 -79.160156 11.71875 -79.484375 C 10.257812 -79.816406 8.363281 -80.054688 6.03125 -80.203125 L 6.03125 -84.359375 L 39.328125 -84.359375 L 39.328125 -80.203125 C 36.992188 -80.128906 35.113281 -79.910156 33.6875 -79.546875 C 32.257812 -79.179688 31.160156 -78.519531 30.390625 -77.5625 C 29.628906 -76.613281 29.117188 -75.300781 28.859375 -73.625 C 28.609375 -71.945312 28.484375 -69.71875 28.484375 -66.9375 L 28.484375 -19.71875 C 28.484375 -16.65625 28.789062 -14.15625 29.40625 -12.21875 C 30.03125 -10.28125 31.09375 -8.78125 32.59375 -7.71875 C 34.09375 -6.664062 36.082031 -5.9375 38.5625 -5.53125 C 41.050781 -5.132812 44.191406 -4.9375 47.984375 -4.9375 C 52.148438 -4.9375 55.65625 -5.171875 58.5 -5.640625 C 61.351562 -6.117188 63.75 -6.957031 65.6875 -8.15625 C 67.625 -9.363281 69.15625 -11.046875 70.28125 -13.203125 C 71.414062 -15.359375 72.382812 -18.148438 73.1875 -21.578125 L 77.34375 -21.578125 Z M 75.703125 0 "/></g></g></g><g fill="#000000" fill-opacity="1"><g transform="translate(167.528607, 230.473699)"><g><path d="M 31.921875 -19.515625 C 31.921875 -16.410156 32.101562 -13.894531 32.46875 -11.96875 C 32.832031 -10.039062 33.628906 -8.566406 34.859375 -7.546875 C 36.085938 -6.523438 37.828125 -5.804688 40.078125 -5.390625 C 42.328125 -4.984375 45.296875 -4.742188 48.984375 -4.671875 L 48.984375 0 L 5.53125 0 L 5.53125 -4.671875 C 8.382812 -4.742188 10.691406 -4.984375 12.453125 -5.390625 C 14.210938 -5.804688 15.582031 -6.503906 16.5625 -7.484375 C 17.550781 -8.460938 18.207031 -9.851562 18.53125 -11.65625 C 18.863281 -13.457031 19.03125 -15.789062 19.03125 -18.65625 L 19.03125 -75.859375 C 19.03125 -78.722656 18.882812 -81.035156 18.59375 -82.796875 C 18.3125 -84.554688 17.738281 -85.945312 16.875 -86.96875 C 16.019531 -87.988281 14.769531 -88.679688 13.125 -89.046875 C 11.488281 -89.421875 9.363281 -89.691406 6.75 -89.859375 L 6.75 -94.515625 L 77.703125 -94.515625 L 79.046875 -71.078125 L 74.75 -71.078125 C 74.257812 -74.585938 73.484375 -77.46875 72.421875 -79.71875 C 71.359375 -81.976562 69.863281 -83.757812 67.9375 -85.0625 C 66.019531 -86.375 63.585938 -87.296875 60.640625 -87.828125 C 57.691406 -88.359375 54.007812 -88.625 49.59375 -88.625 L 34 -88.625 C 32.613281 -88.625 31.921875 -87.925781 31.921875 -86.53125 L 31.921875 -49.46875 C 35.847656 -49.46875 39.222656 -49.691406 42.046875 -50.140625 C 44.867188 -50.585938 47.195312 -51.382812 49.03125 -52.53125 C 50.875 -53.675781 52.285156 -55.226562 53.265625 -57.1875 C 54.253906 -59.15625 54.867188 -61.695312 55.109375 -64.8125 L 59.40625 -64.8125 L 59.40625 -28.84375 L 55.109375 -28.84375 C 54.703125 -31.957031 54.046875 -34.535156 53.140625 -36.578125 C 52.242188 -38.617188 50.914062 -40.210938 49.15625 -41.359375 C 47.394531 -42.503906 45.125 -43.320312 42.34375 -43.8125 C 39.5625 -44.3125 36.085938 -44.5625 31.921875 -44.5625 Z M 31.921875 -19.515625 "/></g></g></g><g fill="#000000" fill-opacity="1"><g transform="translate(122.554274, 268.179328)"><g><path d="M 0.660156 -15.75 C 1.714844 -15.75 2.179688 -15.574219 2.179688 -14.5625 L 2.179688 -1.230469 C 2.113281 -0.285156 1.628906 -0.285156 0.660156 -0.285156 L 0.660156 0 L 12.5625 0 L 14.121094 -6.3125 L 13.835938 -6.3125 C 12.824219 -2.949219 11.328125 -0.285156 7.566406 -0.285156 C 5.324219 -0.285156 4.621094 -0.394531 4.621094 -1.453125 L 4.621094 -14.5625 C 4.621094 -15.574219 5.082031 -15.75 6.136719 -15.75 L 6.136719 -16.035156 L 0.660156 -16.035156 Z M 0.660156 -15.75 "/></g></g></g><g fill="#000000" fill-opacity="1"><g transform="translate(137.225656, 268.179328)"><g><path d="M 0.878906 -5.519531 C 0.878906 -2 2.882812 0.265625 6.488281 0.265625 C 9.921875 0.265625 12.097656 -2 12.097656 -5.519531 C 12.097656 -8.777344 10.164062 -11.109375 6.488281 -11.109375 C 3.011719 -11.109375 0.878906 -8.777344 0.878906 -5.519531 Z M 6.269531 -10.824219 C 8.6875 -10.824219 9.679688 -7.789062 9.679688 -5.300781 C 9.679688 -2.816406 8.800781 -0.0234375 6.710938 -0.0234375 C 4.289062 -0.0234375 3.300781 -3.320312 3.300781 -5.742188 C 3.300781 -8.160156 4.179688 -10.824219 6.269531 -10.824219 Z M 6.269531 -10.824219 "/></g></g></g><g fill="#000000" fill-opacity="1"><g transform="translate(150.203347, 268.179328)"><g><path d="M 0.660156 -10.054688 L 0.660156 -9.765625 C 1.804688 -9.765625 2.484375 -9.394531 2.484375 -8.511719 L 2.484375 -1.472656 C 2.484375 -0.460938 1.980469 -0.285156 0.925781 -0.285156 L 0.925781 0 L 6.246094 0 L 6.246094 -0.285156 C 5.234375 -0.285156 4.730469 -0.441406 4.683594 -1.386719 L 4.683594 -7.5 C 5.34375 -9.4375 6.378906 -9.699219 7.304688 -9.699219 C 8.734375 -9.699219 9.636719 -9.28125 10.230469 -7.722656 L 10.515625 -7.722656 L 9.898438 -10.601562 C 9.898438 -10.601562 9.21875 -11.109375 7.917969 -11.109375 C 5.894531 -11.109375 5.214844 -9.480469 4.773438 -8.535156 L 4.683594 -8.535156 L 4.683594 -10.84375 Z M 0.660156 -10.054688 "/></g></g></g><g fill="#000000" fill-opacity="1"><g transform="translate(161.26738, 268.179328)"><g><path d="M 6.46875 0.265625 C 9.941406 0.265625 11.175781 -2.265625 11.242188 -4.816406 L 10.953125 -4.816406 C 10.953125 -3.695312 10.359375 -0.945312 7.324219 -0.945312 C 4.445312 -0.945312 3.078125 -3.167969 3.078125 -6.246094 C 3.078125 -6.445312 3.078125 -6.644531 3.101562 -6.839844 L 10.953125 -6.839844 C 10.953125 -9.171875 9.394531 -11.109375 6.730469 -11.109375 C 3.058594 -11.109375 0.878906 -8.269531 0.878906 -5.367188 C 0.878906 -2.113281 2.773438 0.265625 6.46875 0.265625 Z M 3.144531 -7.128906 C 3.429688 -9.261719 4.75 -10.667969 6.511719 -10.667969 C 8.820312 -10.667969 9.105469 -8.734375 9.105469 -7.128906 Z M 3.144531 -7.128906 "/></g></g></g><g fill="#000000" fill-opacity="1"><g transform="translate(173.057277, 268.179328)"><g><path d="M 0.660156 -15.75 C 1.804688 -15.75 2.507812 -15.617188 2.507812 -14.738281 L 2.507812 -1.472656 C 2.507812 -0.441406 2 -0.285156 0.945312 -0.285156 L 0.945312 0 L 6.226562 0 L 6.226562 -0.285156 C 5.191406 -0.285156 4.707031 -0.441406 4.707031 -1.472656 L 4.707031 -16.828125 L 0.660156 -16.035156 Z M 0.660156 -15.75 "/></g></g></g><g fill="#000000" fill-opacity="1"><g transform="translate(179.502131, 268.179328)"><g><path d="M 1.101562 -3.980469 C 1.101562 -1.011719 3.167969 0.265625 6.535156 0.265625 C 8.203125 0.265625 9.699219 -0.0429688 10.933594 -0.683594 C 11.769531 -0.242188 12.625 0 13.441406 0 C 15.15625 0 16.410156 -0.570312 16.851562 -2.132812 L 16.609375 -2.132812 C 16.367188 -1.121094 15.617188 -0.792969 14.738281 -0.792969 C 14.054688 -0.792969 13.21875 -1.121094 12.363281 -1.695312 C 13.792969 -2.992188 14.628906 -5.039062 14.628906 -7.875 C 14.628906 -8.535156 14.78125 -8.601562 16.453125 -8.601562 L 16.453125 -8.863281 L 12.691406 -8.863281 L 12.691406 -8.601562 C 14.1875 -8.601562 14.34375 -8.535156 14.34375 -7.875 C 14.34375 -5.808594 13.75 -3.386719 12.121094 -1.847656 C 10.03125 -3.367188 7.832031 -6.292969 7.039062 -9.414062 C 9.171875 -10.515625 12.1875 -11.945312 12.1875 -14.035156 C 12.1875 -15.617188 10.976562 -16.277344 9.65625 -16.277344 C 7.082031 -16.277344 5.300781 -14.539062 4.882812 -11.945312 C 4.707031 -10.910156 4.796875 -9.8125 5.039062 -8.710938 C 2.660156 -7.523438 1.101562 -6.421875 1.101562 -3.980469 Z M 5.148438 -8.316406 C 5.960938 -5.257812 8.183594 -2.289062 10.625 -0.859375 C 9.855469 -0.527344 8.953125 -0.328125 7.898438 -0.328125 C 4.925781 -0.328125 3.453125 -2.417969 3.453125 -5.101562 C 3.453125 -6.578125 4.027344 -7.5 5.148438 -8.316406 Z M 6.796875 -12.824219 C 7.0625 -14.804688 7.898438 -16.035156 9.65625 -16.035156 C 10.691406 -16.035156 11.242188 -15.179688 11.242188 -14.035156 C 11.242188 -12.164062 8.820312 -10.601562 6.972656 -9.679688 C 6.730469 -10.710938 6.664062 -11.789062 6.796875 -12.824219 Z M 6.796875 -12.824219 "/></g></g></g><g fill="#000000" fill-opacity="1"><g transform="translate(197.011007, 268.179328)"><g><path d="M 6.136719 0 L 6.136719 -0.265625 C 5.101562 -0.265625 4.621094 -0.441406 4.621094 -1.429688 L 4.621094 -8.269531 L 7.171875 -8.269531 C 9.394531 -8.269531 9.699219 -7.390625 9.699219 -4.640625 L 9.988281 -4.640625 L 9.988281 -11.921875 L 9.699219 -11.921875 C 9.699219 -9.457031 9.394531 -8.578125 7.171875 -8.558594 L 4.621094 -8.558594 L 4.621094 -15.75 L 7.214844 -15.75 C 9.523438 -15.707031 11.066406 -15.53125 12.230469 -12.539062 L 12.515625 -12.539062 L 11.351562 -16.035156 L 0.660156 -16.035156 L 0.660156 -15.75 C 1.714844 -15.75 2.179688 -15.574219 2.179688 -14.5625 L 2.179688 -1.472656 C 2.179688 -0.460938 1.714844 -0.285156 0.660156 -0.285156 L 0.660156 0 Z M 6.136719 0 "/></g></g></g><g fill="#000000" fill-opacity="1"><g transform="translate(210.07668, 268.179328)"><g><path d="M 0.878906 -5.519531 C 0.878906 -2 2.882812 0.265625 6.488281 0.265625 C 9.921875 0.265625 12.097656 -2 12.097656 -5.519531 C 12.097656 -8.777344 10.164062 -11.109375 6.488281 -11.109375 C 3.011719 -11.109375 0.878906 -8.777344 0.878906 -5.519531 Z M 6.269531 -10.824219 C 8.6875 -10.824219 9.679688 -7.789062 9.679688 -5.300781 C 9.679688 -2.816406 8.800781 -0.0234375 6.710938 -0.0234375 C 4.289062 -0.0234375 3.300781 -3.320312 3.300781 -5.742188 C 3.300781 -8.160156 4.179688 -10.824219 6.269531 -10.824219 Z M 6.269531 -10.824219 "/></g></g></g><g fill="#000000" fill-opacity="1"><g transform="translate(223.054371, 268.179328)"><g><path d="M 0.441406 -10.558594 L 2.066406 -10.558594 L 2.066406 -2.355469 C 2.066406 -0.484375 2.683594 0.285156 4.640625 0.285156 C 6.421875 0.285156 7.015625 -1.054688 7.015625 -2.132812 L 6.730469 -2.132812 C 6.730469 -1.386719 6.335938 -0.328125 5.34375 -0.328125 C 4.445312 -0.328125 4.265625 -0.96875 4.265625 -2.132812 L 4.265625 -10.558594 L 6.621094 -10.558594 L 6.621094 -10.84375 L 4.265625 -10.84375 L 4.265625 -14.648438 L 3.980469 -14.648438 C 3.695312 -13 2.816406 -11.152344 0.441406 -10.84375 Z M 0.441406 -10.558594 "/></g></g></g><g fill="#000000" fill-opacity="1"><g transform="translate(230.07112, 268.179328)"><g><path d="M 0.878906 -5.519531 C 0.878906 -2 2.882812 0.265625 6.488281 0.265625 C 9.921875 0.265625 12.097656 -2 12.097656 -5.519531 C 12.097656 -8.777344 10.164062 -11.109375 6.488281 -11.109375 C 3.011719 -11.109375 0.878906 -8.777344 0.878906 -5.519531 Z M 6.269531 -10.824219 C 8.6875 -10.824219 9.679688 -7.789062 9.679688 -5.300781 C 9.679688 -2.816406 8.800781 -0.0234375 6.710938 -0.0234375 C 4.289062 -0.0234375 3.300781 -3.320312 3.300781 -5.742188 C 3.300781 -8.160156 4.179688 -10.824219 6.269531 -10.824219 Z M 6.269531 -10.824219 "/></g></g></g><g fill="#000000" fill-opacity="1"><g transform="translate(243.048811, 268.179328)"><g><path d="M 1.164062 0 C 1.164062 -0.285156 1.296875 -0.484375 1.539062 -0.527344 C 2.417969 -0.703125 2.882812 0.265625 4.992188 0.265625 C 7.214844 0.265625 8.710938 -1.054688 8.734375 -2.882812 C 8.734375 -7.039062 2.882812 -5.917969 2.925781 -9.152344 C 2.925781 -10.074219 3.585938 -10.691406 4.574219 -10.691406 C 6.445312 -10.691406 7.546875 -9.128906 7.546875 -7.257812 L 7.851562 -7.257812 L 7.832031 -10.84375 L 7.546875 -10.84375 C 7.546875 -10.558594 7.433594 -10.292969 7.128906 -10.292969 C 6.445312 -10.292969 5.785156 -11.109375 4.355469 -11.109375 C 2.289062 -11.109375 0.925781 -9.898438 0.925781 -7.984375 C 0.945312 -4.070312 6.730469 -5.390625 6.730469 -1.957031 C 6.730469 -0.925781 6.003906 -0.175781 4.507812 -0.175781 C 3.167969 -0.175781 1.164062 -1.144531 1.164062 -4.554688 L 0.878906 -4.554688 L 0.878906 0 Z M 1.164062 0 "/></g></g></g></svg>